<?xml version="1.0" encoding="UTF-8" standalone="no"?>
<!-- Created with Inkscape (http://www.inkscape.org/) -->

<svg
   xmlns:dc="http://purl.org/dc/elements/1.1/"
   xmlns:cc="http://creativecommons.org/ns#"
   xmlns:rdf="http://www.w3.org/1999/02/22-rdf-syntax-ns#"
   xmlns:svg="http://www.w3.org/2000/svg"
   xmlns="http://www.w3.org/2000/svg"
   xmlns:xlink="http://www.w3.org/1999/xlink"
   xmlns:sodipodi="http://sodipodi.sourceforge.net/DTD/sodipodi-0.dtd"
   xmlns:inkscape="http://www.inkscape.org/namespaces/inkscape"
   width="24"
   height="24"
   id="svg2"
   version="1.1"
   inkscape:version="0.48.5 r10040"
   sodipodi:docname="ic_stat_notify.svg">
  <defs
     id="defs4">
    <linearGradient
       id="linearGradient3844">
      <stop
         style="stop-color:#ffffff;stop-opacity:1;"
         offset="0"
         id="stop3846" />
      <stop
         style="stop-color:#eaeaea;stop-opacity:1;"
         offset="1"
         id="stop3848" />
    </linearGradient>
    <linearGradient
       id="linearGradient3834">
      <stop
         style="stop-color:#60c366;stop-opacity:1;"
         offset="0"
         id="stop3840" />
      <stop
         style="stop-color:#1b6c2e;stop-opacity:1;"
         offset="1"
         id="stop3842" />
    </linearGradient>
    <filter
       inkscape:collect="always"
       id="filter3826"
       color-interpolation-filters="sRGB">
      <feGaussianBlur
         inkscape:collect="always"
         stdDeviation="2.0249974"
         id="feGaussianBlur3828" />
    </filter>
    <radialGradient
       inkscape:collect="always"
       xlink:href="#linearGradient3834"
       id="radialGradient3893"
       gradientUnits="userSpaceOnUse"
       gradientTransform="matrix(1.2288762,0.86927261,-0.50619248,0.71559586,462.17201,-87.04675)"
       cx="50.000004"
       cy="942.36212"
       fx="50.000004"
       fy="942.36212"
       r="74.999992" />
    <radialGradient
       inkscape:collect="always"
       xlink:href="#linearGradient3844"
       id="radialGradient3896"
       gradientUnits="userSpaceOnUse"
       gradientTransform="matrix(1.2306893,1.0912407,-0.57418915,0.64756424,-145.3249,547.99537)"
       cx="40.357147"
       cy="41.471043"
       fx="40.357147"
       fy="41.471043"
       r="70.714287" />
  </defs>
  <sodipodi:namedview
     id="base"
     pagecolor="#505050"
     bordercolor="#666666"
     borderopacity="1.0"
     inkscape:pageopacity="1"
     inkscape:pageshadow="2"
     inkscape:zoom="16"
     inkscape:cx="-3.5588602"
     inkscape:cy="4.178955"
     inkscape:document-units="px"
     inkscape:current-layer="layer1"
     showgrid="true"
     inkscape:window-width="1920"
     inkscape:window-height="1057"
     inkscape:window-x="0"
     inkscape:window-y="0"
     inkscape:window-maximized="1"
     borderlayer="true"
     inkscape:showpageshadow="false"
     showguides="true"
     inkscape:guide-bbox="true"
     gridtolerance="1">
    <inkscape:grid
       type="xygrid"
       id="grid3001"
       empspacing="5"
       visible="true"
       enabled="true"
       snapvisiblegridlinesonly="false"
       dotted="false" />
  </sodipodi:namedview>
  <metadata
     id="metadata7">
    <rdf:RDF>
      <cc:Work
         rdf:about="">
        <dc:format>image/svg+xml</dc:format>
        <dc:type
           rdf:resource="http://purl.org/dc/dcmitype/StillImage" />
        <dc:title />
      </cc:Work>
    </rdf:RDF>
  </metadata>
  <g
     inkscape:label="Calque 1"
     inkscape:groupmode="layer"
     id="layer1"
     transform="translate(0,-1028.3622)">
    <path
       style="opacity:0.49621211;fill:#000000;fill-opacity:1;fill-rule:nonzero;stroke:none;filter:url(#filter3826)"
       d="m 1.8749995,577.36236 0,149.99964 149.9999805,0 0,-149.99964 z m 9.3750005,9.375 131.24998,0 0,131.24964 -131.249979,0 z m 18.75,18.75 0,93.74964 19.072266,0 0,-37.49964 46.552732,0 c 5.681302,0 9.491632,4.14591 9.374982,9.375 l 0,28.12464 18.75,0 0,-28.12464 c 0,-8.80982 -2.63363,-12.98029 -7.26517,-18.85529 3.43458,-4.45789 7.26517,-9.59191 7.26517,-18.64471 0,-16.38398 -14.2629,-28.125 -28.124982,-28.125 z m 19.072266,18.75 46.552732,0 c 3.456131,0 9.166132,2.72981 9.374982,9.375 0.20885,6.64518 -5.479261,9.375 -9.374982,9.375 l -46.552732,0 z"
       id="path2544-4-9"
       inkscape:connector-curvature="0"
       sodipodi:nodetypes="ccccccccccccccscccscssccszscc" />
    <rect
       style="color:#000000;fill:url(#radialGradient3896);fill-opacity:1;fill-rule:evenodd;stroke:none;stroke-width:20;marker:none;visibility:visible;display:inline;overflow:visible;enable-background:accumulate"
       id="rect3830"
       width="123.96696"
       height="122.40173"
       x="-146.39215"
       y="591.49823" />
    <path
       style="opacity:0.36170217;fill:#3d3d3d;fill-opacity:1;fill-rule:nonzero;stroke:none"
       d="M 3.2847119,599.56933 26.874989,724.0645 149.30642,702.3622 126.87499,578.93849 z m 9.4611801,6.7484 113.467048,-18.98949 18.98944,113.46646 -113.467048,18.9895 z m 18.92237,13.49681 13.56387,81.04736 16.48818,-2.7595 -5.42551,-32.41854 40.245364,-6.73532 c 4.911534,-0.822 8.805434,2.2109 9.461144,6.74842 l 4.06912,24.31374 16.20958,-2.7128 -4.06912,-24.31376 c -1.27462,-7.6162 -4.15481,-10.8406 -9.00884,-15.2495 2.32426,-4.3508 4.89305,-9.3434 3.58327,-17.1697 -2.37046,-14.16409 -16.39959,-22.25075 -28.383523,-20.24516 z m 19.20097,13.4502 40.245355,-6.7354 c 2.98786,-0.5 8.319182,1.0338 9.461173,6.7484 1.14198,5.7146 -3.380501,8.8976 -6.748393,9.4612 l -40.245355,6.7353 z"
       id="path2544-4-7-2"
       inkscape:connector-curvature="0"
       sodipodi:nodetypes="ccccccccccccccscccscssccszscc" />
    <path
       style="fill:url(#radialGradient3893);fill-opacity:1;fill-rule:nonzero;stroke:none"
       d="M 1.1855651,598.37518 22.887786,728.0515 152.56441,706.3492 130.86219,576.67291 z m 9.4611829,6.7484 113.467042,-18.98949 18.98944,113.46671 -113.467045,18.9895 z m 18.922366,13.49679 13.563867,81.04753 16.488183,-2.7594 -5.425513,-32.4188 40.245348,-6.73533 c 4.91154,-0.82198 8.805451,2.21092 9.461161,6.7484 l 4.06912,24.31403 16.20958,-2.7128 -4.06912,-24.31401 c -1.27462,-7.61619 -4.15481,-10.84057 -9.00883,-15.24947 2.32425,-4.35082 4.89304,-9.34346 3.58326,-17.1697 -2.37046,-14.16413 -16.399611,-22.25078 -28.383525,-20.24519 z m 19.200967,13.45017 40.245349,-6.73533 c 2.98786,-0.50004 8.319169,1.03378 9.461159,6.7484 1.14199,5.71461 -3.380484,8.89754 -6.748374,9.46118 l -40.245349,6.73533 z"
       id="path2544-4"
       inkscape:connector-curvature="0"
       sodipodi:nodetypes="ccccccccccccccscccscssccszscc" />
    <path
       style="fill:#ffffff;fill-opacity:1"
       d="m 10.27567,1029.2305 c -1.2678248,0.019 -2.5237783,0.2701 -3.7253727,0.7499 -2.4090785,0.9501 -4.37513,2.7522 -5.5154853,5.0559 l 0,0.024 c -0.046386,0.1073 -0.046446,0.2232 0,0.3387 0.043324,0.1227 0.1204783,0.2142 0.2419076,0.266 l 0.967629,0.4113 c 0.2246438,0.096 0.4923999,0.01 0.6047683,-0.2176 1.9201246,-3.8129 6.4165393,-5.5937 10.4503951,-4.1367 0.235235,0.085 0.481565,-0.037 0.580577,-0.2661 l 0.411242,-0.9435 c 0.05212,-0.1207 0.05251,-0.2689 0,-0.387 -0.05113,-0.1247 -0.148828,-0.2009 -0.266098,-0.2419 -1.212427,-0.4455 -2.481738,-0.6718 -3.749563,-0.6532 z m -0.04838,3.7496 c -0.7779296,0.022 -1.565345,0.1664 -2.2981193,0.4596 -1.469013,0.5779 -2.6759463,1.6629 -3.4108935,3.048 l -0.024193,0.047 c -0.046375,0.1074 -0.041757,0.2323 0,0.3387 0.040706,0.1288 0.1434528,0.2142 0.2660987,0.2661 l 0.8950563,0.3871 c 0.2234301,0.095 0.4894561,0.02 0.6047673,-0.1936 1.0836315,-1.9694 3.4369027,-2.9112 5.5880605,-2.2255 0.232203,0.075 0.459983,-0.019 0.556385,-0.2419 l 0.411243,-0.9193 c 0.05207,-0.1207 0.03561,-0.2416 -0.02419,-0.3629 -0.05252,-0.118 -0.140324,-0.2212 -0.266097,-0.2661 -0.746047,-0.2502 -1.52019,-0.3607 -2.298119,-0.3386 z m 2.419073,3.3625 0.387052,1.137 0.532196,0 -1.427254,4.6931 -2.2013564,0 0,-4.451 -0.9434379,0 0,4.4268 -3.1689859,0.387 0.2660978,2.9029 -1.7659224,0 0,3.0723 0.7499118,0 c 0.1039664,-1.6836 1.5089986,-3.0239 3.2173674,-3.0239 1.2488198,0 2.3442466,0.7 2.8786976,1.7418 l 1.959449,0 c -0.0078,-0.1165 0,-0.2202 0,-0.3386 0,-2.8801 2.348423,-5.2253 5.249387,-5.2253 1.181279,0 2.26705,0.3846 3.144795,1.0402 l 0.362861,-0.5081 c -0.609519,-0.3769 -1.249468,-0.7774 -2.080403,-1.016 l 0,-3.7012 0.580577,0 0.290289,-1.137 -8.031321,0 z m 2.104593,1.137 3.797945,0 0,3.5561 c -1.38219,0.032 -2.846518,0.2935 -3.918898,1.2337 l -1.161155,-0.097 1.282108,-4.6931 z m 3.628609,4.7172 c -2.591166,0 -4.693,2.104 -4.693,4.6932 0,0.3912 0.05485,0.7742 0.145143,1.1369 0.0031,0.012 -0.0032,0.012 0,0.024 0.0052,0.019 0.01878,0.054 0.02419,0.073 0.572651,1.9636 2.400041,3.3383 4.475284,3.3383 2.508032,0 4.66881,-2.0254 4.66881,-4.6446 0,-1.4153 -0.619461,-2.6615 -1.596588,-3.5078 -0.04961,-0.043 -0.11799,-0.08 -0.169335,-0.1209 -0.01634,-0.012 -0.03187,-0.036 -0.04838,-0.048 -0.784692,-0.5874 -1.748972,-0.9193 -2.806125,-0.9193 l 0,-0.024 z m -0.04838,2.7578 c 1.187719,0 1.886877,0.8791 1.886877,1.8628 0,0.9836 -0.699158,1.8627 -1.886877,1.8627 -1.189588,0 -1.886878,-0.8791 -1.886878,-1.8627 0,-0.9837 0.69729,-1.8628 1.886878,-1.8628 z m -10.0391525,1.016 c -1.5210498,0 -2.7577437,1.2184 -2.7577437,2.7337 0,1.5153 1.2366939,2.7335 2.7577437,2.7335 1.5210507,0 2.7577425,-1.2182 2.7577425,-2.7335 0,-1.5153 -1.2366918,-2.7337 -2.7577425,-2.7337 z m 0.024193,1.379 c 0.8254304,0 1.4272539,0.6356 1.4272539,1.3547 0,0.719 -0.6018235,1.3304 -1.4272539,1.3304 -0.8254293,0 -1.451443,-0.6114 -1.451443,-1.3304 0,-0.7191 0.6260137,-1.3547 1.451443,-1.3547 z"
       id="path8610-3"
       inkscape:connector-curvature="0" />
  </g>
</svg>
