<?xml version="1.0" encoding="UTF-8" standalone="no"?>
<!-- Created with Inkscape (http://www.inkscape.org/) -->

<svg
   xmlns:dc="http://purl.org/dc/elements/1.1/"
   xmlns:cc="http://creativecommons.org/ns#"
   xmlns:rdf="http://www.w3.org/1999/02/22-rdf-syntax-ns#"
   xmlns:svg="http://www.w3.org/2000/svg"
   xmlns="http://www.w3.org/2000/svg"
   xmlns:sodipodi="http://sodipodi.sourceforge.net/DTD/sodipodi-0.dtd"
   xmlns:inkscape="http://www.inkscape.org/namespaces/inkscape"
   width="200"
   height="200"
   id="svg2986"
   version="1.1"
   inkscape:version="0.48.5 r10040"
   sodipodi:docname="icon.svg"
   inkscape:export-filename="/home/brice/Projets/ekylibre/graphism/projects/HD.png"
   inkscape:export-xdpi="180"
   inkscape:export-ydpi="180">
  <defs
     id="defs2988" />
  <sodipodi:namedview
     id="base"
     pagecolor="#ffffff"
     bordercolor="#666666"
     borderopacity="1.0"
     inkscape:pageopacity="0.0"
     inkscape:pageshadow="2"
     inkscape:zoom="0.98994949"
     inkscape:cx="-146.76357"
     inkscape:cy="-7.6287189"
     inkscape:document-units="px"
     inkscape:current-layer="layer1"
     showgrid="false"
     borderlayer="true"
     inkscape:showpageshadow="false"
     inkscape:window-width="1920"
     inkscape:window-height="1057"
     inkscape:window-x="0"
     inkscape:window-y="0"
     inkscape:window-maximized="1"
     showguides="true"
     inkscape:guide-bbox="true"
     fit-margin-top="0"
     fit-margin-left="0"
     fit-margin-right="0"
     fit-margin-bottom="0">
    <sodipodi:guide
       orientation="1,0"
       position="100,-560"
       id="guide4426" />
    <sodipodi:guide
       orientation="0,1"
       position="-40,99.999997"
       id="guide4428" />
  </sodipodi:namedview>
  <metadata
     id="metadata2991">
    <rdf:RDF>
      <cc:Work
         rdf:about="">
        <dc:format>image/svg+xml</dc:format>
        <dc:type
           rdf:resource="http://purl.org/dc/dcmitype/StillImage" />
        <dc:title />
      </cc:Work>
    </rdf:RDF>
  </metadata>
  <g
     inkscape:label="Calque 1"
     inkscape:groupmode="layer"
     id="layer1"
     transform="translate(-40,-292.36219)">
    <g
       id="g4836">
      <path
         id="path8610"
         d="m 143.72545,329.07682 c 1.13146,0.40529 2.00983,1.21674 2.48229,2.27921 0.53799,1.09038 0.51866,2.303 0.0498,3.38828 l -3.52995,8.17208 c -0.86724,2.00774 -3.08887,2.98826 -5.17778,2.31753 -19.35193,-6.16859 -40.438725,2.19056 -50.187124,19.90732 -1.037354,1.92236 -3.343161,2.73849 -5.353147,1.88157 l -8.225702,-3.50692 c -1.103329,-0.47041 -1.958267,-1.33613 -2.324531,-2.49466 -0.375713,-0.95695 -0.329898,-2.0812 0.08731,-3.04709 l 0.13127,-0.30384 c 6.611617,-12.4614 17.536211,-22.2101 30.751534,-27.40955 13.18416,-5.27701 27.87377,-5.68408 41.29672,-1.18223 z m 13.52432,-30.95018 c 1.05496,0.37263 1.93332,1.18411 2.39328,2.30548 0.47242,1.06244 0.47653,2.22084 0.008,3.3061 l -3.74089,8.66041 c -0.89071,2.06203 -3.20595,3.07975 -5.32215,2.31889 -36.28879,-13.10664 -76.618669,2.90691 -93.892218,37.20638 -1.010868,2.01077 -3.394734,2.85787 -5.415642,1.99628 l -8.717294,-3.71649 c -1.092383,-0.46574 -1.881765,-1.30349 -2.271467,-2.40775 -0.417827,-1.03919 -0.372017,-2.16342 0.0452,-3.1293 l 0.0797,-0.18449 c 10.258702,-20.72491 27.823188,-36.83145 49.495401,-45.37798 21.6192,-8.63332 45.52423,-8.99262 67.33835,-0.97753 z"
         inkscape:connector-curvature="0"
         style="fill:#ffab37;fill-opacity:1"
         sodipodi:nodetypes="ccssccssccccccccssccssccccc" />
      <path
         inkscape:connector-curvature="0"
         id="path8660"
         d="m 144.78125,356.36219 3.5,10.14227 4.875,0 -13,42.31666 -19.78125,0 0,-40.19459 -8.46875,0 0,39.85131 -28.375,3.43277 2.28125,26.15144 -15.8125,0 0,27.58697 6.75,0 c 0.935286,-15.1466 13.537672,-27.15007 28.90625,-27.15007 11.23446,0 21.00455,6.4195 25.8125,15.79073 l 17.75,0 c -0.0704,-1.04802 -0.0937,-2.11771 -0.0937,-3.18311 0,-25.90832 21.12151,-46.99771 47.21875,-46.99771 10.62685,0 20.44751,3.49534 28.34375,9.3933 l 3.15625,-4.61863 c -5.48327,-3.39025 -11.08736,-6.87271 -18.5625,-9.01882 l 0,-33.36025 5.1875,0 2.5,-10.14227 -72.1875,0 z m 18.90625,10.14227 34.125,0 0,31.92473 c -12.43425,0.28245 -25.4153,2.77634 -35.0625,11.23451 l -10.53125,-0.84258 11.46875,-42.31666 z m 32.65625,42.5351 c -23.31028,0 -42.1875,18.7751 -42.1875,42.06701 0,3.51924 0.46893,6.94123 1.28125,10.20468 0.0277,0.11139 0.0339,0.23224 0.0625,0.34328 0.0466,0.16782 0.10757,0.33239 0.15625,0.49931 5.1516,17.66429 21.6435,30.20835 40.3125,30.20835 22.5624,0 42.03125,-18.3482 42.03125,-41.91097 0,-12.73183 -5.67846,-23.93655 -14.46875,-31.55025 -0.44627,-0.38654 -0.9131,-0.75566 -1.375,-1.12345 -0.147,-0.11309 -0.28897,-0.23209 -0.4375,-0.34328 -7.05914,-5.28429 -15.8648,-8.39468 -25.375,-8.39468 z m -0.375,24.65352 c 10.68479,0 17.0625,7.90953 17.0625,16.75814 0,8.84861 -6.37771,16.78935 -17.0625,16.78935 -10.70159,0 -17.03125,-7.94074 -17.03125,-16.78935 0,-8.84861 6.32966,-16.75814 17.03125,-16.75814 z m -90.3125,9.11243 c -13.683455,0 -24.71875,11.02221 -24.71875,24.65351 0,13.63131 11.035295,24.62231 24.71875,24.62231 13.68346,0 24.71875,-10.991 24.71875,-24.62231 0,-13.6313 -11.03529,-24.65351 -24.71875,-24.65351 z m 0.125,12.57641 c 7.42561,0 12.84375,5.60826 12.84375,12.0771 0,6.46889 -5.41814,12.0771 -12.84375,12.0771 -7.42561,0 -12.875,-5.60821 -12.875,-12.0771 0,-6.46884 5.44939,-12.0771 12.875,-12.0771 z" />
    </g>
  </g>
</svg>
